<svg width="40" height="40" viewBox="0 0 40 40" fill="none" xmlns="http://www.w3.org/2000/svg">
<rect width="40" height="40" rx="20" fill="#65A30D"/>
<path fill-rule="evenodd" clip-rule="evenodd" d="M14 14C13.4696 14 12.9609 14.2107 12.5858 14.5858C12.2107 14.9609 12 15.4696 12 16V20C12 20.5304 12.2107 21.0391 12.5858 21.4142C12.9609 21.7893 13.4696 22 14 22V16H24C24 15.4696 23.7893 14.9609 23.4142 14.5858C23.0391 14.2107 22.5304 14 22 14H14ZM16 20C16 19.4696 16.2107 18.9609 16.5858 18.5858C16.9609 18.2107 17.4696 18 18 18H26C26.5304 18 27.0391 18.2107 27.4142 18.5858C27.7893 18.9609 28 19.4696 28 20V24C28 24.5304 27.7893 25.0391 27.4142 25.4142C27.0391 25.7893 26.5304 26 26 26H18C17.4696 26 16.9609 25.7893 16.5858 25.4142C16.2107 25.0391 16 24.5304 16 24V20ZM22 24C22.5304 24 23.0391 23.7893 23.4142 23.4142C23.7893 23.0391 24 22.5304 24 22C24 21.4696 23.7893 20.9609 23.4142 20.5858C23.0391 20.2107 22.5304 20 22 20C21.4696 20 20.9609 20.2107 20.5858 20.5858C20.2107 20.9609 20 21.4696 20 22C20 22.5304 20.2107 23.0391 20.5858 23.4142C20.9609 23.7893 21.4696 24 22 24Z" fill="white"/>
</svg>
