<svg width="40" height="40" viewBox="0 0 40 40" fill="none" xmlns="http://www.w3.org/2000/svg">
<rect width="40" height="40" rx="20" fill="#65A30D"/>
<path fill-rule="evenodd" clip-rule="evenodd" d="M28 20C28 22.1217 27.1571 24.1566 25.6569 25.6569C24.1566 27.1571 22.1217 28 20 28C17.8783 28 15.8434 27.1571 14.3431 25.6569C12.8429 24.1566 12 22.1217 12 20C12 17.8783 12.8429 15.8434 14.3431 14.3431C15.8434 12.8429 17.8783 12 20 12C22.1217 12 24.1566 12.8429 25.6569 14.3431C27.1571 15.8434 28 17.8783 28 20ZM26 20C26 20.993 25.759 21.929 25.332 22.754L23.808 21.229C24.0362 20.5227 24.0632 19.7668 23.886 19.046L25.448 17.484C25.802 18.249 26 19.1 26 20ZM20.835 23.913L22.415 25.493C21.654 25.8281 20.8315 26.0007 20 26C19.1312 26.0011 18.2726 25.8127 17.484 25.448L19.046 23.886C19.6327 24.0298 20.2443 24.039 20.835 23.913ZM16.158 21.117C15.9612 20.4394 15.9471 19.7218 16.117 19.037L16.037 19.117L14.507 17.584C14.1718 18.3453 13.9991 19.1682 14 20C14 20.954 14.223 21.856 14.619 22.657L16.159 21.117H16.158ZM17.246 14.667C18.0972 14.227 19.0418 13.9982 20 14C20.954 14 21.856 14.223 22.657 14.619L21.117 16.159C20.3493 15.9354 19.5321 15.9469 18.771 16.192L17.246 14.668V14.667ZM22 20C22 20.5304 21.7893 21.0391 21.4142 21.4142C21.0391 21.7893 20.5304 22 20 22C19.4696 22 18.9609 21.7893 18.5858 21.4142C18.2107 21.0391 18 20.5304 18 20C18 19.4696 18.2107 18.9609 18.5858 18.5858C18.9609 18.2107 19.4696 18 20 18C20.5304 18 21.0391 18.2107 21.4142 18.5858C21.7893 18.9609 22 19.4696 22 20Z" fill="white"/>
</svg>

