<svg width="40" height="40" viewBox="0 0 40 40" fill="none" xmlns="http://www.w3.org/2000/svg">
<rect width="40" height="40" rx="20" fill="#65A30D"/>
<path fill-rule="evenodd" clip-rule="evenodd" d="M22 17C21.7348 17 21.4804 16.8946 21.2929 16.7071C21.1053 16.5196 21 16.2652 21 16C21 15.7348 21.1053 15.4804 21.2929 15.2929C21.4804 15.1054 21.7348 15 22 15H27C27.2652 15 27.5196 15.1054 27.7071 15.2929C27.8946 15.4804 28 15.7348 28 16V21C28 21.2652 27.8946 21.5196 27.7071 21.7071C27.5196 21.8946 27.2652 22 27 22C26.7348 22 26.4804 21.8946 26.2929 21.7071C26.1053 21.5196 26 21.2652 26 21V18.414L21.707 22.707C21.5195 22.8945 21.2651 22.9998 21 22.9998C20.7348 22.9998 20.4805 22.8945 20.293 22.707L18 20.414L13.707 24.707C13.5184 24.8892 13.2658 24.99 13.0036 24.9877C12.7414 24.9854 12.4906 24.8802 12.3052 24.6948C12.1198 24.5094 12.0146 24.2586 12.0123 23.9964C12.01 23.7342 12.1108 23.4816 12.293 23.293L17.293 18.293C17.4805 18.1055 17.7348 18.0002 18 18.0002C18.2651 18.0002 18.5195 18.1055 18.707 18.293L21 20.586L24.586 17H22Z" fill="white"/>
</svg>
