<svg width="40" height="40" viewBox="0 0 40 40" fill="none" xmlns="http://www.w3.org/2000/svg">
<rect width="40" height="40" rx="20" fill="#65A30D"/>
<path d="M20.707 12.293C20.5195 12.1056 20.2651 12.0002 20 12.0002C19.7348 12.0002 19.4805 12.1056 19.293 12.293L12.293 19.293C12.1108 19.4816 12.01 19.7342 12.0123 19.9964C12.0146 20.2586 12.1198 20.5094 12.3052 20.6948C12.4906 20.8803 12.7414 20.9854 13.0036 20.9877C13.2658 20.99 13.5184 20.8892 13.707 20.707L14 20.414V27C14 27.2652 14.1053 27.5196 14.2929 27.7071C14.4804 27.8947 14.7348 28 15 28H17C17.2652 28 17.5196 27.8947 17.7071 27.7071C17.8946 27.5196 18 27.2652 18 27V25C18 24.7348 18.1053 24.4805 18.2929 24.2929C18.4804 24.1054 18.7348 24 19 24H21C21.2652 24 21.5196 24.1054 21.7071 24.2929C21.8946 24.4805 22 24.7348 22 25V27C22 27.2652 22.1053 27.5196 22.2929 27.7071C22.4804 27.8947 22.7348 28 23 28H25C25.2652 28 25.5196 27.8947 25.7071 27.7071C25.8946 27.5196 26 27.2652 26 27V20.414L26.293 20.707C26.4816 20.8892 26.7342 20.99 26.9964 20.9877C27.2586 20.9854 27.5094 20.8803 27.6948 20.6948C27.8802 20.5094 27.9854 20.2586 27.9877 19.9964C27.9899 19.7342 27.8891 19.4816 27.707 19.293L20.707 12.293Z" fill="white"/>
</svg>
