<svg width="40" height="40" viewBox="0 0 40 40" fill="none" xmlns="http://www.w3.org/2000/svg">
<rect width="40" height="40" rx="20" fill="#65A30D"/>
<path d="M14.7223 27.5C14.5019 27.5 14.3172 27.4255 14.1682 27.2764C14.0191 27.1273 13.9445 26.9426 13.9445 26.7222V25.9444C13.2964 25.9444 12.7455 25.7176 12.2918 25.2639C11.8381 24.8102 11.6112 24.2593 11.6112 23.6111V19.7222C11.6112 19.2944 11.7635 18.9282 12.0682 18.6236C12.3728 18.319 12.739 18.1667 13.1668 18.1667C13.5945 18.1667 13.9607 18.319 14.2654 18.6236C14.57 18.9282 14.7223 19.2944 14.7223 19.7222V22.8333H25.6112V19.7222C25.6112 19.2944 25.7635 18.9282 26.0682 18.6236C26.3728 18.319 26.739 18.1667 27.1668 18.1667C27.5945 18.1667 27.9607 18.319 28.2654 18.6236C28.57 18.9282 28.7223 19.2944 28.7223 19.7222V23.6111C28.7223 24.2593 28.4955 24.8102 28.0418 25.2639C27.5881 25.7176 27.0371 25.9444 26.389 25.9444V26.7222C26.389 26.9426 26.3144 27.1273 26.1654 27.2764C26.0163 27.4255 25.8316 27.5 25.6112 27.5C25.3908 27.5 25.2061 27.4255 25.057 27.2764C24.908 27.1273 24.8334 26.9426 24.8334 26.7222V25.9444H15.5001V26.7222C15.5001 26.9426 15.4256 27.1273 15.2765 27.2764C15.1274 27.4255 14.9427 27.5 14.7223 27.5ZM16.2779 21.2778V19.7222C16.2779 19.0093 16.0607 18.3708 15.6265 17.8069C15.1922 17.2431 14.6316 16.8444 13.9445 16.6111V15.8333C13.9445 15.1852 14.1714 14.6343 14.6251 14.1806C15.0788 13.7269 15.6297 13.5 16.2779 13.5H24.0557C24.7038 13.5 25.2547 13.7269 25.7084 14.1806C26.1621 14.6343 26.389 15.1852 26.389 15.8333V16.6111C25.689 16.7926 25.1251 17.1718 24.6973 17.7486C24.2695 18.3255 24.0557 18.9833 24.0557 19.7222V21.2778H16.2779Z" fill="white"/>
</svg>
