<svg width="40" height="40" viewBox="0 0 40 40" fill="none" xmlns="http://www.w3.org/2000/svg">
<rect width="40" height="40" rx="20" fill="#65A30D"/>
<path d="M20.0834 27.5C19.8472 27.5 19.6493 27.4201 19.4896 27.2604C19.3299 27.1007 19.25 26.9028 19.25 26.6667C19.25 26.5694 19.2709 26.4688 19.3125 26.3646C19.3542 26.2604 19.4167 26.1667 19.5 26.0833L23.3542 22.2292L22.75 21.625L18.9167 25.4792C18.8334 25.5625 18.7431 25.625 18.6459 25.6667C18.5486 25.7083 18.4445 25.7292 18.3334 25.7292C18.0972 25.7292 17.8993 25.6493 17.7396 25.4896C17.5799 25.3299 17.5 25.1319 17.5 24.8958C17.5 24.7569 17.5209 24.6424 17.5625 24.5521C17.6042 24.4618 17.6597 24.3819 17.7292 24.3125L21.5834 20.4583L21 19.875L17.1459 23.7083C17.0625 23.7917 16.9722 23.8542 16.875 23.8958C16.7778 23.9375 16.6667 23.9583 16.5417 23.9583C16.3195 23.9583 16.125 23.875 15.9584 23.7083C15.7917 23.5417 15.7084 23.3472 15.7084 23.125C15.7084 23.0139 15.7292 22.9097 15.7709 22.8125C15.8125 22.7153 15.875 22.625 15.9584 22.5417L19.8125 18.6875L19.2084 18.1042L15.375 21.9583C15.3056 22.0278 15.2222 22.0833 15.125 22.125C15.0278 22.1667 14.9097 22.1875 14.7709 22.1875C14.5347 22.1875 14.3368 22.1076 14.1771 21.9479C14.0174 21.7882 13.9375 21.5903 13.9375 21.3542C13.9375 21.2431 13.9584 21.1389 14 21.0417C14.0417 20.9444 14.1042 20.8542 14.1875 20.7708L18.8334 16.125L21.9584 19.2708C22.1111 19.4236 22.2917 19.5451 22.5 19.6354C22.7084 19.7257 22.9167 19.7708 23.125 19.7708C23.5695 19.7708 23.9584 19.6146 24.2917 19.3021C24.625 18.9896 24.7917 18.5903 24.7917 18.1042C24.7917 17.9097 24.757 17.7083 24.6875 17.5C24.6181 17.2917 24.4931 17.0972 24.3125 16.9167L20.5834 13.1875C20.8195 12.9653 21.0834 12.7951 21.375 12.6771C21.6667 12.559 21.9584 12.5 22.25 12.5C22.6111 12.5 22.9445 12.559 23.25 12.6771C23.5556 12.7951 23.8334 12.9792 24.0834 13.2292L27.6042 16.7708C27.8542 17.0208 28.0382 17.2986 28.1563 17.6042C28.2743 17.9097 28.3334 18.2639 28.3334 18.6667C28.3334 18.9444 28.2709 19.2257 28.1459 19.5104C28.0209 19.7951 27.8403 20.0556 27.6042 20.2917L20.6667 27.25C20.5556 27.3611 20.4584 27.4306 20.375 27.4583C20.2917 27.4861 20.1945 27.5 20.0834 27.5ZM12.9375 20.8333L12.3959 20.2917C12.1597 20.0694 11.9792 19.8056 11.8542 19.5C11.7292 19.1944 11.6667 18.875 11.6667 18.5417C11.6667 18.1806 11.7361 17.8472 11.875 17.5417C12.0139 17.2361 12.1875 16.9792 12.3959 16.7708L15.9167 13.2292C16.1389 13.0069 16.4028 12.8299 16.7084 12.6979C17.0139 12.566 17.3125 12.5 17.6042 12.5C17.9792 12.5 18.3125 12.5521 18.6042 12.6562C18.8959 12.7604 19.1806 12.9514 19.4584 13.2292L23.7292 17.5C23.8125 17.5833 23.875 17.6736 23.9167 17.7708C23.9584 17.8681 23.9792 17.9722 23.9792 18.0833C23.9792 18.3056 23.8959 18.5 23.7292 18.6667C23.5625 18.8333 23.3681 18.9167 23.1459 18.9167C23.0209 18.9167 22.9167 18.8993 22.8334 18.8646C22.75 18.8299 22.6597 18.7639 22.5625 18.6667L18.8125 14.9583L12.9375 20.8333Z" fill="white"/>
</svg>
