<svg width="40" height="40" viewBox="0 0 40 40" fill="none" xmlns="http://www.w3.org/2000/svg">
<rect width="40" height="40" rx="20" fill="#65A30D"/>
<path fill-rule="evenodd" clip-rule="evenodd" d="M20 12C20.2652 12 20.5196 12.1054 20.7071 12.2929C20.8947 12.4804 21 12.7348 21 13V14.323L24.954 15.905L26.553 15.105C26.7904 14.9864 27.0651 14.967 27.3168 15.0511C27.5685 15.1351 27.7765 15.3156 27.895 15.553C28.0136 15.7904 28.033 16.0651 27.949 16.3168C27.8649 16.5685 27.6844 16.7764 27.447 16.895L26.214 17.511L27.952 22.931C28.0109 23.1149 28.0154 23.3118 27.9648 23.4982C27.9142 23.6845 27.8108 23.8522 27.667 23.981C26.9342 24.6381 25.9843 25.001 25 25C24.0157 25.001 23.0659 24.6381 22.333 23.981C22.1892 23.8522 22.0858 23.6845 22.0352 23.4982C21.9847 23.3118 21.9891 23.1149 22.048 22.931L23.763 17.582L21 16.477V26H23C23.2652 26 23.5196 26.1054 23.7071 26.2929C23.8947 26.4804 24 26.7348 24 27C24 27.2652 23.8947 27.5196 23.7071 27.7071C23.5196 27.8946 23.2652 28 23 28H17C16.7348 28 16.4804 27.8946 16.2929 27.7071C16.1054 27.5196 16 27.2652 16 27C16 26.7348 16.1054 26.4804 16.2929 26.2929C16.4804 26.1054 16.7348 26 17 26H19V16.477L16.237 17.582L17.952 22.931C18.0109 23.1149 18.0154 23.3118 17.9648 23.4982C17.9142 23.6845 17.8108 23.8522 17.667 23.981C16.9342 24.6381 15.9843 25.001 15 25C14.0157 25.001 13.0659 24.6381 12.333 23.981C12.1892 23.8522 12.0858 23.6845 12.0352 23.4982C11.9847 23.3118 11.9891 23.1149 12.048 22.931L13.786 17.511L12.553 16.894C12.3243 16.7707 12.1526 16.5631 12.0742 16.3154C11.9958 16.0676 12.017 15.799 12.1332 15.5666C12.2494 15.3342 12.4516 15.1561 12.6968 15.0701C12.942 14.9842 13.2111 14.997 13.447 15.106L15.046 15.905L19 14.323V13C19 12.7348 19.1054 12.4804 19.2929 12.2929C19.4804 12.1054 19.7348 12 20 12ZM15 20.274L14.182 22.826C14.432 22.938 14.708 23 15 23C15.292 23 15.569 22.938 15.818 22.826L15 20.274ZM25 20.274L24.182 22.826C24.432 22.938 24.708 23 25 23C25.292 23 25.569 22.938 25.818 22.826L25 20.274Z" fill="white"/>
</svg>
