<svg width="1440" height="481" viewBox="0 0 1440 481" fill="none" xmlns="http://www.w3.org/2000/svg">
<g clip-path="url(#clip0_3333_35475)">
<path d="M0 0H1440V480H0V0Z" fill="#EFF6FF"/>
<path d="M1178.5 175C1376.5 175 1623 436 1623 436V493H-271V288.003C-271 288.003 -138.659 110.577 -12.5 123.5C190.077 144.253 354.754 403.929 557.5 422.5C806.185 445.28 928.487 175 1178.5 175Z" fill="url(#paint0_linear_3333_35475)"/>
<path fill-rule="evenodd" clip-rule="evenodd" d="M1252 329C1251.4 329 1250.8 329.011 1250.2 329.032C1244.56 324.034 1237.13 321 1229 321C1211.33 321 1197 335.327 1197 353C1197 359.725 1199.07 365.965 1202.62 371.116C1202.21 373.684 1202 376.317 1202 379C1202 406.614 1224.39 429 1252 429C1253.09 429 1254.17 428.965 1255.24 428.897C1259.41 430.886 1264.07 432 1269 432C1286.67 432 1301 417.673 1301 400C1301 397.445 1300.7 394.959 1300.13 392.577C1301.35 388.26 1302 383.706 1302 379C1302 351.386 1279.61 329 1252 329Z" fill="#93C5FD"/>
<path fill-rule="evenodd" clip-rule="evenodd" d="M1244 356H1248V392.591L1266.27 360.947L1269.73 362.947L1248 400.591V480H1244V399.826L1230.03 385.857L1232.86 383.029L1244 394.17V356Z" fill="#60A5FA"/>
<path fill-rule="evenodd" clip-rule="evenodd" d="M431 329C430.398 329 429.799 329.011 429.202 329.032C423.557 324.034 416.133 321 408 321C390.327 321 376 335.327 376 353C376 359.725 378.074 365.965 381.618 371.116C381.211 373.684 381 376.317 381 379C381 406.614 403.386 429 431 429C432.087 429 433.166 428.965 434.236 428.897C438.405 430.886 443.073 432 448 432C465.673 432 480 417.673 480 400C480 397.445 479.7 394.959 479.135 392.577C480.35 388.26 481 383.706 481 379C481 351.386 458.614 329 431 329Z" fill="#93C5FD"/>
<path fill-rule="evenodd" clip-rule="evenodd" d="M423 356H427V392.591L445.27 360.947L448.734 362.947L427 400.591V480H423V399.826L409.031 385.857L411.86 383.029L423 394.17V356Z" fill="#60A5FA"/>
<path fill-rule="evenodd" clip-rule="evenodd" d="M639 353C638.398 353 637.799 353.011 637.202 353.032C631.557 348.034 624.133 345 616 345C598.327 345 584 359.327 584 377C584 383.725 586.074 389.965 589.618 395.116C589.211 397.684 589 400.317 589 403C589 430.614 611.386 453 639 453C640.087 453 641.166 452.965 642.236 452.897C646.405 454.886 651.073 456 656 456C673.673 456 688 441.673 688 424C688 421.445 687.7 418.959 687.135 416.577C688.35 412.26 689 407.706 689 403C689 375.386 666.614 353 639 353Z" fill="#93C5FD"/>
<path fill-rule="evenodd" clip-rule="evenodd" d="M631 380H635V416.591L653.27 384.947L656.734 386.947L635 424.591V504H631V423.826L617.031 409.857L619.86 407.029L631 418.17V380Z" fill="#60A5FA"/>
<rect x="484" y="428" width="6" height="52" fill="#FAFAFA" stroke="#3F3F46" stroke-width="2" stroke-linejoin="round"/>
<rect x="589" y="428" width="6" height="52" fill="#FAFAFA" stroke="#3F3F46" stroke-width="2" stroke-linejoin="round"/>
<rect x="440" y="324" width="200" height="109" fill="#60A5FA" stroke="#3F3F46" stroke-width="2" stroke-linejoin="round"/>
<rect x="440" y="337" width="200" height="96" fill="#FAFAFA" stroke="#3F3F46" stroke-width="2" stroke-linejoin="round"/>
<path d="M502.531 413.96V400.008V370.12H501.379L503.619 369.544L495.299 382.408L485.763 397.128L486.467 394.312V395.528H518.659V402.184H483.331V396.808L504.515 364.36H511.683V413.96H502.531ZM539.99 414.088C531.094 414.088 523.158 406.472 523.158 389C523.158 371.656 531.094 364.104 539.99 364.104C548.822 364.104 556.886 371.656 556.886 389C556.886 406.472 548.822 414.088 539.99 414.088ZM539.99 411.848C543.766 411.848 547.094 406.92 547.094 389C547.094 371.208 543.766 366.344 539.99 366.344C536.15 366.344 532.95 371.144 532.95 389C532.95 406.984 536.15 411.848 539.99 411.848ZM580.906 413.96V400.008V370.12H579.754L581.994 369.544L573.674 382.408L564.138 397.128L564.842 394.312V395.528H597.034V402.184H561.706V396.808L582.89 364.36H590.058V413.96H580.906Z" fill="#3F3F46"/>
<rect x="721" y="336.953" width="410.066" height="143.046" fill="#DBEAFE" stroke="#3F3F46" stroke-width="2" stroke-linejoin="round"/>
<rect x="714.305" y="336.953" width="422.781" height="6.35762" fill="#BFDBFE" stroke="#3F3F46" stroke-width="2" stroke-linejoin="round"/>
<rect x="739.734" y="410.066" width="139.868" height="6.35762" fill="#BFDBFE" stroke="#3F3F46" stroke-width="2" stroke-linejoin="round"/>
<rect x="713" y="474" width="426" height="6" fill="#EFF6FF" stroke="#3F3F46" stroke-width="2" stroke-linejoin="round"/>
<rect x="746.094" y="416.424" width="127.152" height="63.5762" fill="#DBEAFE"/>
<rect x="746.094" y="416.424" width="127.152" height="63.5762" stroke="#3F3F46" stroke-width="2" stroke-linejoin="round"/>
<path d="M754.039 427.549H862.119" stroke="#3F3F46" stroke-width="2" stroke-linecap="round" stroke-linejoin="round"/>
<path d="M746.094 440.266H873.246" stroke="#3F3F46" stroke-width="2" stroke-linecap="round" stroke-linejoin="round"/>
<path d="M746.094 465.695H873.246" stroke="#3F3F46" stroke-width="2" stroke-linecap="round" stroke-linejoin="round"/>
<path d="M830.328 452.98H862.116" stroke="#3F3F46" stroke-width="2" stroke-linecap="round" stroke-linejoin="round"/>
<path d="M746.155 279.37C749.192 275.582 753.784 273.377 758.64 273.377H1092.75C1097.61 273.377 1102.2 275.582 1105.24 279.37L1146.18 330.451C1148.28 333.07 1146.41 336.953 1143.06 336.953H708.333C704.977 336.953 703.113 333.07 705.211 330.451L746.155 279.37Z" fill="#93C5FD" stroke="#3F3F46" stroke-width="2" stroke-linejoin="round"/>
<path d="M939.155 279.37C942.192 275.582 946.784 273.377 951.64 273.377H1092.75C1097.61 273.377 1102.2 275.582 1105.24 279.37L1146.18 330.451C1148.28 333.07 1146.41 336.953 1143.06 336.953H901.333C897.977 336.953 896.113 333.07 898.211 330.451L939.155 279.37Z" fill="#60A5FA" stroke="#3F3F46" stroke-width="2" stroke-linejoin="round"/>
<g clip-path="url(#clip1_3333_35475)">
<rect x="1049.67" y="416.424" width="50.8609" height="38.1457" fill="#BFDBFE"/>
<path d="M1075.1 416.424V454.57" stroke="#3F3F46" stroke-width="2"/>
<path d="M1049.67 435.496H1100.53" stroke="#3F3F46" stroke-width="2"/>
</g>
<rect x="1049.67" y="416.424" width="50.8609" height="38.1457" stroke="#3F3F46" stroke-width="2" stroke-linejoin="round"/>
<g clip-path="url(#clip2_3333_35475)">
<rect x="1049.67" y="356.027" width="50.8609" height="38.1457" fill="#BFDBFE"/>
<path d="M1075.1 356.027V394.173" stroke="#3F3F46" stroke-width="2"/>
<path d="M1049.67 375.1H1100.53" stroke="#3F3F46" stroke-width="2"/>
</g>
<rect x="1049.67" y="356.027" width="50.8609" height="38.1457" stroke="#3F3F46" stroke-width="2" stroke-linejoin="round"/>
<g clip-path="url(#clip3_3333_35475)">
<rect x="746.094" y="356.027" width="127.152" height="38.1457" fill="#BFDBFE"/>
<path d="M784.242 356.027V394.173" stroke="#3F3F46" stroke-width="2"/>
<path d="M835.102 356.027V394.173" stroke="#3F3F46" stroke-width="2"/>
<path d="M746.094 375.1H873.246" stroke="#3F3F46" stroke-width="2"/>
</g>
<rect x="746.094" y="356.027" width="127.152" height="38.1457" stroke="#3F3F46" stroke-width="2" stroke-linejoin="round"/>
<path d="M892.32 336.953L955.896 251.92L1019.47 336.953V479.999H892.32V336.953Z" fill="#EFF6FF" stroke="#3F3F46" stroke-width="2" stroke-linejoin="round"/>
<g clip-path="url(#clip4_3333_35475)">
<rect x="926" y="416.424" width="60.3974" height="63.5762" fill="#DBEAFE"/>
<path d="M956.195 416.424V480" stroke="#3F3F46" stroke-width="2"/>
</g>
<rect x="926" y="416.424" width="60.3974" height="63.5762" stroke="#3F3F46" stroke-width="2" stroke-linejoin="round"/>
<rect x="909" y="474" width="94" height="6" fill="#EFF6FF" stroke="#3F3F46" stroke-width="2" stroke-linejoin="round"/>
<rect x="918" y="470" width="76" height="4" fill="#EFF6FF" stroke="#3F3F46" stroke-width="2" stroke-linejoin="round"/>
<g clip-path="url(#clip5_3333_35475)">
<rect x="930.461" y="356.027" width="50.8609" height="38.1457" fill="#DBEAFE"/>
<path d="M955.891 356.027V394.173" stroke="#3F3F46" stroke-width="2"/>
<path d="M930.461 375.1H981.322" stroke="#3F3F46" stroke-width="2"/>
</g>
<rect x="930.461" y="356.027" width="50.8609" height="38.1457" stroke="#3F3F46" stroke-width="2" stroke-linejoin="round"/>
<g style="mix-blend-mode:darken" opacity="0.1">
<path d="M835 337H894.5L956.5 258.5L1018 337H1131V480H977L835 337Z" fill="#60A5FA"/>
</g>
<path fill-rule="evenodd" clip-rule="evenodd" d="M1030.52 349.669C1033.82 349.669 1035.71 345.898 1033.72 343.262L959.093 244.239C957.493 242.116 954.305 242.116 952.704 244.239L878.078 343.262C876.092 345.898 877.972 349.669 881.273 349.669H888.019C889.274 349.669 890.457 349.079 891.213 348.077L952.698 266.491C954.298 264.368 957.486 264.368 959.087 266.491L1020.57 348.077C1021.33 349.079 1022.51 349.669 1023.77 349.669H1030.52Z" fill="#60A5FA"/>
<path d="M1020.57 348.077L1019.77 348.678L1020.57 348.077ZM952.698 266.491L953.497 267.093L952.698 266.491ZM959.087 266.491L959.885 265.889L959.087 266.491ZM891.213 348.077L892.012 348.678L891.213 348.077ZM1033.72 343.262L1032.92 343.864L1033.72 343.262ZM959.093 244.239L959.892 243.637L959.093 244.239ZM952.704 244.239L951.906 243.637L952.704 244.239ZM958.295 244.841L1032.92 343.864L1034.52 342.66L959.892 243.637L958.295 244.841ZM878.877 343.864L953.503 244.841L951.906 243.637L877.28 342.66L878.877 343.864ZM888.019 348.669H881.273V350.669H888.019V348.669ZM892.012 348.678L953.497 267.093L951.899 265.889L890.415 347.475L892.012 348.678ZM958.288 267.093L1019.77 348.678L1021.37 347.475L959.885 265.889L958.288 267.093ZM1030.52 348.669H1023.77V350.669H1030.52V348.669ZM1019.77 348.678C1020.72 349.932 1022.2 350.669 1023.77 350.669V348.669C1022.82 348.669 1021.94 348.227 1021.37 347.475L1019.77 348.678ZM953.497 267.093C954.697 265.5 957.088 265.5 958.288 267.093L959.885 265.889C957.885 263.235 953.9 263.235 951.899 265.889L953.497 267.093ZM888.019 350.669C889.588 350.669 891.067 349.932 892.012 348.678L890.415 347.475C889.848 348.227 888.961 348.669 888.019 348.669V350.669ZM877.28 342.66C874.797 345.955 877.147 350.669 881.273 350.669V348.669C878.798 348.669 877.387 345.84 878.877 343.864L877.28 342.66ZM1032.92 343.864C1034.41 345.84 1033 348.669 1030.52 348.669V350.669C1034.65 350.669 1037 345.955 1034.52 342.66L1032.92 343.864ZM959.892 243.637C957.891 240.983 953.906 240.983 951.906 243.637L953.503 244.841C954.703 243.248 957.094 243.248 958.295 244.841L959.892 243.637Z" fill="#3F3F46"/>
</g>
<path d="M1440 479H0V481H1440V479Z" fill="#3F3F46"/>
<defs>
<linearGradient id="paint0_linear_3333_35475" x1="676" y1="122.827" x2="676" y2="493" gradientUnits="userSpaceOnUse">
<stop stop-color="#DBEAFE"/>
<stop offset="1" stop-color="#DBEAFE" stop-opacity="0"/>
</linearGradient>
<clipPath id="clip0_3333_35475">
<path d="M0 0H1440V480H0V0Z" fill="white"/>
</clipPath>
<clipPath id="clip1_3333_35475">
<rect x="1049.67" y="416.424" width="50.8609" height="38.1457" fill="white"/>
</clipPath>
<clipPath id="clip2_3333_35475">
<rect x="1049.67" y="356.027" width="50.8609" height="38.1457" fill="white"/>
</clipPath>
<clipPath id="clip3_3333_35475">
<rect x="746.094" y="356.027" width="127.152" height="38.1457" fill="white"/>
</clipPath>
<clipPath id="clip4_3333_35475">
<rect x="926" y="416.424" width="60.3974" height="63.5762" fill="white"/>
</clipPath>
<clipPath id="clip5_3333_35475">
<rect x="930.461" y="356.027" width="50.8609" height="38.1457" fill="white"/>
</clipPath>
</defs>
</svg>
