<svg width="1440" height="481" viewBox="0 0 1440 481" fill="none" xmlns="http://www.w3.org/2000/svg">
<g clip-path="url(#clip0_3333_35528)">
<path d="M0 0H1440V480H0V0Z" fill="#EFF6FF"/>
<path opacity="0.4" d="M1178.5 175C1376.5 175 1623 436 1623 436V493H-271V288.003C-271 288.003 -138.659 110.577 -12.5 123.5C190.077 144.253 354.754 403.929 557.5 422.5C806.185 445.28 928.487 175 1178.5 175Z" fill="url(#paint0_linear_3333_35528)"/>
<rect x="484" y="428" width="6" height="52" fill="#FAFAFA" stroke="#3F3F46" stroke-width="2" stroke-linejoin="round"/>
<rect x="589" y="428" width="6" height="52" fill="#FAFAFA" stroke="#3F3F46" stroke-width="2" stroke-linejoin="round"/>
<rect x="440" y="324" width="200" height="109" fill="#DBEAFE" stroke="#3F3F46" stroke-width="2" stroke-linejoin="round" stroke-dasharray="4 4"/>
<rect x="440" y="337" width="200" height="96" fill="#EFF6FF" stroke="#3F3F46" stroke-width="2" stroke-linejoin="round" stroke-dasharray="4 4"/>
<path d="M440 378V433H640V402.5" stroke="#3F3F46" stroke-width="2" stroke-linejoin="round"/>
<path d="M498.404 414.088C489.444 414.088 484.068 409.672 483.556 402.696C484.26 400.776 485.924 399.816 487.716 399.816C490.34 399.816 491.876 401.224 492.26 405L493.284 412.04L491.108 410.44C493.092 411.464 494.244 411.848 496.548 411.848C502.436 411.848 506.34 407.56 506.34 399.432C506.34 392.072 502.564 387.912 496.612 387.912C494.18 387.912 492.068 388.296 489.828 389L487.908 387.72L489.444 365.192H515.62V373.128H490.788L492.452 367.24L491.044 387.464L488.356 386.632C492.068 385.032 495.716 384.456 499.812 384.456C510.628 384.456 517.284 389.448 517.284 398.984C517.284 408.84 509.348 414.088 498.404 414.088ZM540.022 414.088C531.126 414.088 523.19 406.472 523.19 389C523.19 371.656 531.126 364.104 540.022 364.104C548.854 364.104 556.918 371.656 556.918 389C556.918 406.472 548.854 414.088 540.022 414.088ZM540.022 411.848C543.798 411.848 547.126 406.92 547.126 389C547.126 371.208 543.798 366.344 540.022 366.344C536.182 366.344 532.982 371.144 532.982 389C532.982 406.984 536.182 411.848 540.022 411.848ZM579.209 414.088C570.313 414.088 562.377 406.472 562.377 389C562.377 371.656 570.313 364.104 579.209 364.104C588.041 364.104 596.105 371.656 596.105 389C596.105 406.472 588.041 414.088 579.209 414.088ZM579.209 411.848C582.985 411.848 586.313 406.92 586.313 389C586.313 371.208 582.985 366.344 579.209 366.344C575.369 366.344 572.169 371.144 572.169 389C572.169 406.984 575.369 411.848 579.209 411.848Z" fill="#3F3F46"/>
<rect x="721" y="336.953" width="410.066" height="143.046" fill="#EFF6FF" stroke="#3F3F46" stroke-width="2" stroke-linejoin="round" stroke-dasharray="4 4"/>
<rect x="714.305" y="336.953" width="422.781" height="6.35762" fill="#EFF6FF" stroke="#3F3F46" stroke-width="2" stroke-linejoin="round" stroke-dasharray="4 4"/>
<rect x="739.734" y="410.066" width="139.868" height="6.35762" fill="#DBEAFE" stroke="#3F3F46" stroke-width="2" stroke-linejoin="round" stroke-dasharray="4 4"/>
<rect x="713" y="474" width="426" height="6" fill="#EFF6FF" stroke="#3F3F46" stroke-width="2" stroke-linejoin="round"/>
<rect x="746.094" y="416.424" width="127.152" height="63.5762" fill="#DBEAFE"/>
<rect x="746.094" y="416.424" width="127.152" height="63.5762" stroke="#3F3F46" stroke-width="2" stroke-linejoin="round"/>
<path d="M754.039 427.549H862.119" stroke="#3F3F46" stroke-width="2" stroke-linecap="round" stroke-linejoin="round"/>
<path d="M746.094 440.266H873.246" stroke="#3F3F46" stroke-width="2" stroke-linecap="round" stroke-linejoin="round"/>
<path d="M746.094 465.695H873.246" stroke="#3F3F46" stroke-width="2" stroke-linecap="round" stroke-linejoin="round"/>
<path d="M830.328 452.98H862.116" stroke="#3F3F46" stroke-width="2" stroke-linecap="round" stroke-linejoin="round"/>
<path opacity="0.5" d="M746.155 225.993C749.192 222.205 753.784 220 758.64 220H1092.75C1097.61 220 1102.2 222.205 1105.24 225.993L1146.18 277.074C1148.28 279.693 1146.41 283.576 1143.06 283.576H708.333C704.977 283.576 703.113 279.693 705.211 277.074L746.155 225.993Z" fill="#EFF6FF" stroke="#3F3F46" stroke-width="2" stroke-linejoin="round" stroke-dasharray="4 4"/>
<g clip-path="url(#clip1_3333_35528)">
<rect x="1068.93" y="362" width="50.8609" height="38.1457" transform="rotate(38.8415 1068.93 362)" fill="#DBEAFE"/>
<path d="M1088.73 377.948L1064.81 407.659" stroke="#3F3F46" stroke-width="2" stroke-linejoin="round" stroke-dasharray="4 4"/>
<path d="M1056.96 376.855L1096.58 408.754" stroke="#3F3F46" stroke-width="2" stroke-linejoin="round" stroke-dasharray="4 4"/>
</g>
<rect x="1068.93" y="362" width="50.8609" height="38.1457" transform="rotate(38.8415 1068.93 362)" stroke="#3F3F46" stroke-width="2" stroke-linejoin="round" stroke-dasharray="4 4"/>
<g clip-path="url(#clip2_3333_35528)">
<rect x="1033" y="224.985" width="50.8609" height="38.1457" transform="rotate(-20.7094 1033 224.985)" fill="#DBEAFE"/>
<path d="M1056.79 215.992L1070.27 251.673" stroke="#3F3F46" stroke-width="2" stroke-linejoin="round" stroke-dasharray="4 4"/>
<path d="M1039.75 242.825L1087.32 224.839" stroke="#3F3F46" stroke-width="2" stroke-linejoin="round" stroke-dasharray="4 4"/>
</g>
<rect x="1033" y="224.985" width="50.8609" height="38.1457" transform="rotate(-20.7094 1033 224.985)" stroke="#3F3F46" stroke-width="2" stroke-linejoin="round" stroke-dasharray="4 4"/>
<g opacity="0.6">
<g clip-path="url(#clip3_3333_35528)">
<rect x="742.203" y="157.053" width="127.152" height="38.1457" transform="rotate(-16.4716 742.203 157.053)" fill="#DBEAFE"/>
<path d="M778.785 146.236L789.601 182.817" stroke="#3F3F46" stroke-width="2" stroke-linejoin="round" stroke-dasharray="4 4"/>
<path d="M827.559 131.815L838.374 168.396" stroke="#3F3F46" stroke-width="2" stroke-linejoin="round" stroke-dasharray="4 4"/>
<path d="M747.609 175.343L869.543 139.29" stroke="#3F3F46" stroke-width="2" stroke-linejoin="round" stroke-dasharray="4 4"/>
</g>
<rect x="742.203" y="157.053" width="127.152" height="38.1457" transform="rotate(-16.4716 742.203 157.053)" stroke="#3F3F46" stroke-width="2" stroke-linejoin="round" stroke-dasharray="4 4"/>
</g>
<path d="M892.32 336.953L955.896 251.92L1019.47 336.953V479.999H892.32V336.953Z" fill="#EFF6FF" stroke="#3F3F46" stroke-width="2" stroke-linejoin="round" stroke-dasharray="4 4"/>
<path d="M892.32 450V479.999H1019.47V396.5" stroke="#3F3F46" stroke-width="2" stroke-linejoin="round"/>
<g clip-path="url(#clip4_3333_35528)">
<rect x="926" y="416.424" width="60.3974" height="63.5762" fill="#DBEAFE"/>
<path d="M956.195 416.424V480" stroke="#3F3F46" stroke-width="2"/>
</g>
<rect x="926" y="416.424" width="60.3974" height="63.5762" stroke="#3F3F46" stroke-width="2" stroke-linejoin="round"/>
<rect x="909" y="474" width="94" height="6" fill="#EFF6FF" stroke="#3F3F46" stroke-width="2" stroke-linejoin="round"/>
<rect x="918" y="470" width="76" height="4" fill="#EFF6FF" stroke="#3F3F46" stroke-width="2" stroke-linejoin="round"/>
<g clip-path="url(#clip5_3333_35528)">
<rect x="927.609" y="351.567" width="50.8609" height="38.1457" transform="rotate(-9.72046 927.609 351.567)" fill="#DBEAFE"/>
<path d="M952.676 347.273L959.116 384.871" stroke="#3F3F46" stroke-width="2" stroke-linejoin="round" stroke-dasharray="4 4"/>
<path d="M930.828 370.366L980.959 361.779" stroke="#3F3F46" stroke-width="2" stroke-linejoin="round" stroke-dasharray="4 4"/>
</g>
<rect x="927.609" y="351.567" width="50.8609" height="38.1457" transform="rotate(-9.72046 927.609 351.567)" stroke="#3F3F46" stroke-width="2" stroke-linejoin="round" stroke-dasharray="4 4"/>
<g opacity="0.4">
<path fill-rule="evenodd" clip-rule="evenodd" d="M1038.01 180.095C1041.26 179.555 1042.5 175.527 1040.11 173.252L950.291 87.7699C948.364 85.9368 945.219 86.4583 943.988 88.815L886.565 198.711C885.037 201.636 887.509 205.049 890.765 204.51L897.42 203.406C898.658 203.201 899.729 202.425 900.31 201.312L947.621 110.768C948.853 108.412 951.998 107.89 953.924 109.723L1027.93 180.152C1028.84 181.018 1030.1 181.406 1031.34 181.201L1038.01 180.095Z" fill="#EFF6FF"/>
<path d="M1027.93 180.152L1027.24 180.877L1027.93 180.152ZM1031.34 181.201L1031.5 182.187L1031.34 181.201ZM947.621 110.768L948.508 111.231L947.621 110.768ZM953.924 109.723L953.235 110.448L953.924 109.723ZM900.31 201.312L901.197 201.776L900.31 201.312ZM886.565 198.711L885.679 198.248L886.565 198.711ZM1040.11 173.252L1040.8 172.527L1040.11 173.252ZM1038.01 180.095L1037.84 179.109L1038.01 180.095ZM950.291 87.7699L949.601 88.4943L950.291 87.7699ZM943.988 88.815L944.874 89.2781L943.988 88.815ZM1028.62 179.428L1027.19 178.073L1025.81 179.522L1027.24 180.877L1028.62 179.428ZM1024.35 175.365L1021.5 172.656L1020.12 174.105L1022.97 176.813L1024.35 175.365ZM1018.65 169.947L1015.81 167.238L1014.43 168.687L1017.28 171.396L1018.65 169.947ZM1012.96 164.529L1010.12 161.821L1008.74 163.269L1011.58 165.978L1012.96 164.529ZM1007.27 159.112L1004.42 156.403L1003.04 157.852L1005.89 160.56L1007.27 159.112ZM1001.58 153.694L998.73 150.985L997.352 152.434L1000.2 155.143L1001.58 153.694ZM995.884 148.277L993.038 145.568L991.659 147.016L994.505 149.725L995.884 148.277ZM990.192 142.859L987.345 140.15L985.967 141.599L988.813 144.308L990.192 142.859ZM984.499 137.441L981.653 134.732L980.274 136.181L983.12 138.89L984.499 137.441ZM978.807 132.024L975.96 129.315L974.582 130.764L977.428 133.472L978.807 132.024ZM973.114 126.606L970.268 123.897L968.889 125.346L971.735 128.055L973.114 126.606ZM967.422 121.188L964.575 118.48L963.197 119.928L966.043 122.637L967.422 121.188ZM961.729 115.771L958.883 113.062L957.504 114.511L960.35 117.22L961.729 115.771ZM956.037 110.353L954.614 108.999L953.235 110.448L954.658 111.802L956.037 110.353ZM954.614 108.999C954.029 108.443 953.351 108.057 952.635 107.838L952.05 109.751C952.473 109.88 952.879 110.109 953.235 110.448L954.614 108.999ZM948.233 108.568C947.627 109.007 947.109 109.59 946.735 110.305L948.508 111.231C948.735 110.797 949.045 110.449 949.405 110.189L948.233 108.568ZM946.735 110.305L945.825 112.046L947.598 112.973L948.508 111.231L946.735 110.305ZM944.006 115.529L942.186 119.011L943.959 119.938L945.778 116.455L944.006 115.529ZM940.366 122.494L938.547 125.976L940.319 126.902L942.139 123.42L940.366 122.494ZM936.727 129.459L934.907 132.941L936.68 133.867L938.5 130.385L936.727 129.459ZM933.088 136.424L931.268 139.906L933.041 140.832L934.86 137.35L933.088 136.424ZM929.448 143.389L927.629 146.871L929.401 147.797L931.221 144.315L929.448 143.389ZM925.809 150.354L923.989 153.836L925.762 154.762L927.582 151.28L925.809 150.354ZM922.17 157.318L920.35 160.801L922.123 161.727L923.942 158.245L922.17 157.318ZM918.53 164.283L916.711 167.766L918.483 168.692L920.303 165.21L918.53 164.283ZM914.891 171.248L913.072 174.731L914.844 175.657L916.664 172.175L914.891 171.248ZM911.252 178.213L909.432 181.696L911.205 182.622L913.024 179.14L911.252 178.213ZM907.613 185.178L905.793 188.661L907.566 189.587L909.385 186.104L907.613 185.178ZM903.973 192.143L902.154 195.626L903.926 196.552L905.746 193.069L903.973 192.143ZM900.334 199.108L899.424 200.849L901.197 201.776L902.107 200.034L900.334 199.108ZM899.424 200.849C898.988 201.684 898.185 202.266 897.256 202.42L897.583 204.393C899.132 204.136 900.47 203.167 901.197 201.776L899.424 200.849ZM897.256 202.42L895.592 202.695L895.919 204.669L897.583 204.393L897.256 202.42ZM892.265 203.247L890.601 203.523L890.928 205.496L892.592 205.22L892.265 203.247ZM890.601 203.523C890.001 203.623 889.449 203.545 888.969 203.347L888.205 205.195C889.025 205.534 889.955 205.658 890.928 205.496L890.601 203.523ZM887.11 200.78C887.071 200.262 887.17 199.713 887.451 199.174L885.679 198.248C885.222 199.122 885.049 200.044 885.115 200.929L887.11 200.78ZM887.451 199.174L888.408 197.343L886.636 196.416L885.679 198.248L887.451 199.174ZM890.323 193.679L892.237 190.016L890.464 189.09L888.55 192.753L890.323 193.679ZM894.151 186.353L896.065 182.69L894.292 181.764L892.378 185.427L894.151 186.353ZM897.979 179.027L899.893 175.363L898.12 174.437L896.206 178.1L897.979 179.027ZM901.807 171.7L903.721 168.037L901.949 167.111L900.034 170.774L901.807 171.7ZM905.635 164.374L907.549 160.711L905.777 159.784L903.863 163.448L905.635 164.374ZM909.463 157.047L911.377 153.384L909.605 152.458L907.691 156.121L909.463 157.047ZM913.292 149.721L915.206 146.058L913.433 145.132L911.519 148.795L913.292 149.721ZM917.12 142.395L919.034 138.731L917.261 137.805L915.347 141.468L917.12 142.395ZM920.948 135.068L922.862 131.405L921.089 130.479L919.175 134.142L920.948 135.068ZM924.776 127.742L926.69 124.079L924.918 123.152L923.004 126.815L924.776 127.742ZM928.604 120.415L930.518 116.752L928.746 115.826L926.832 119.489L928.604 120.415ZM932.432 113.089L934.347 109.426L932.574 108.499L930.66 112.163L932.432 113.089ZM936.261 105.762L938.175 102.099L936.402 101.173L934.488 104.836L936.261 105.762ZM940.089 98.4361L942.003 94.7729L940.23 93.8467L938.316 97.5099L940.089 98.4361ZM943.917 91.1097L944.874 89.2781L943.101 88.3519L942.144 90.1835L943.917 91.1097ZM944.874 89.2781C945.101 88.8432 945.412 88.4956 945.771 88.2359L944.599 86.6151C943.993 87.0533 943.475 87.637 943.101 88.3519L944.874 89.2781ZM948.416 87.7973C948.84 87.9272 949.246 88.156 949.601 88.4943L950.98 87.0455C950.396 86.4894 949.717 86.1042 949.002 85.8851L948.416 87.7973ZM949.601 88.4943L951.098 89.919L952.477 88.4702L950.98 87.0455L949.601 88.4943ZM954.092 92.7684L957.086 95.6177L958.465 94.169L955.471 91.3196L954.092 92.7684ZM960.08 98.4671L963.074 101.317L964.453 99.8678L961.459 97.0184L960.08 98.4671ZM966.068 104.166L969.062 107.015L970.441 105.567L967.447 102.717L966.068 104.166ZM972.056 109.865L975.05 112.714L976.429 111.265L973.435 108.416L972.056 109.865ZM978.044 115.563L981.038 118.413L982.416 116.964L979.423 114.115L978.044 115.563ZM984.032 121.262L987.026 124.112L988.404 122.663L985.41 119.813L984.032 121.262ZM990.02 126.961L993.013 129.81L994.392 128.362L991.398 125.512L990.02 126.961ZM996.007 132.66L999.001 135.509L1000.38 134.06L997.386 131.211L996.007 132.66ZM1002 138.359L1004.99 141.208L1006.37 139.759L1003.37 136.91L1002 138.359ZM1007.98 144.057L1010.98 146.907L1012.36 145.458L1009.36 142.609L1007.98 144.057ZM1013.97 149.756L1016.97 152.606L1018.34 151.157L1015.35 148.307L1013.97 149.756ZM1019.96 155.455L1022.95 158.304L1024.33 156.856L1021.34 154.006L1019.96 155.455ZM1025.95 161.154L1028.94 164.003L1030.32 162.554L1027.33 159.705L1025.95 161.154ZM1031.93 166.853L1034.93 169.702L1036.31 168.253L1033.31 165.404L1031.93 166.853ZM1037.92 172.551L1039.42 173.976L1040.8 172.527L1039.3 171.103L1037.92 172.551ZM1039.42 173.976C1039.86 174.395 1040.13 174.883 1040.26 175.385L1042.2 174.883C1041.97 174.024 1041.51 173.207 1040.8 172.527L1039.42 173.976ZM1039.33 178.415C1038.94 178.758 1038.44 179.009 1037.84 179.109L1038.17 181.082C1039.14 180.92 1039.98 180.504 1040.65 179.918L1039.33 178.415ZM1037.84 179.109L1036.18 179.385L1036.5 181.358L1038.17 181.082L1037.84 179.109ZM1032.84 179.938L1031.17 180.214L1031.5 182.187L1033.17 181.911L1032.84 179.938ZM1031.17 180.214C1030.25 180.368 1029.3 180.077 1028.62 179.428L1027.24 180.877C1028.37 181.959 1029.95 182.444 1031.5 182.187L1031.17 180.214Z" fill="#3F3F46"/>
</g>
</g>
<path d="M1440 479H0V481H1440V479Z" fill="#3F3F46"/>
<defs>
<linearGradient id="paint0_linear_3333_35528" x1="676" y1="122.827" x2="676" y2="493" gradientUnits="userSpaceOnUse">
<stop stop-color="#DBEAFE"/>
<stop offset="1" stop-color="#DBEAFE" stop-opacity="0"/>
</linearGradient>
<clipPath id="clip0_3333_35528">
<path d="M0 0H1440V480H0V0Z" fill="white"/>
</clipPath>
<clipPath id="clip1_3333_35528">
<rect x="1068.93" y="362" width="50.8609" height="38.1457" transform="rotate(38.8415 1068.93 362)" fill="white"/>
</clipPath>
<clipPath id="clip2_3333_35528">
<rect x="1033" y="224.985" width="50.8609" height="38.1457" transform="rotate(-20.7094 1033 224.985)" fill="white"/>
</clipPath>
<clipPath id="clip3_3333_35528">
<rect x="742.203" y="157.053" width="127.152" height="38.1457" transform="rotate(-16.4716 742.203 157.053)" fill="white"/>
</clipPath>
<clipPath id="clip4_3333_35528">
<rect x="926" y="416.424" width="60.3974" height="63.5762" fill="white"/>
</clipPath>
<clipPath id="clip5_3333_35528">
<rect x="927.609" y="351.567" width="50.8609" height="38.1457" transform="rotate(-9.72046 927.609 351.567)" fill="white"/>
</clipPath>
</defs>
</svg>
