<svg width="40" height="40" viewBox="0 0 40 40" fill="none" xmlns="http://www.w3.org/2000/svg">
<rect width="40" height="40" rx="20" fill="#65A30D"/>
<mask id="mask0_4473_2645" style="mask-type:alpha" maskUnits="userSpaceOnUse" x="10" y="10" width="20" height="20">
<rect x="10" y="10" width="20" height="20" fill="#D9D9D9"/>
</mask>
<g mask="url(#mask0_4473_2645)">
<path d="M15 25.8334V26.6667C15 26.9029 14.9201 27.1008 14.7604 27.2605C14.6007 27.4202 14.4028 27.5001 14.1667 27.5001H13.3333C13.0972 27.5001 12.8993 27.4202 12.7396 27.2605C12.5799 27.1008 12.5 26.9029 12.5 26.6667V20.0001L14.25 15.0001C14.3333 14.7501 14.4826 14.5487 14.6979 14.3959C14.9132 14.2431 15.1528 14.1667 15.4167 14.1667H24.5833C24.8472 14.1667 25.0868 14.2431 25.3021 14.3959C25.5174 14.5487 25.6667 14.7501 25.75 15.0001L27.5 20.0001V26.6667C27.5 26.9029 27.4201 27.1008 27.2604 27.2605C27.1007 27.4202 26.9028 27.5001 26.6667 27.5001H25.8333C25.5972 27.5001 25.3993 27.4202 25.2396 27.2605C25.0799 27.1008 25 26.9029 25 26.6667V25.8334H15ZM14.8333 18.3334H25.1667L24.2917 15.8334H15.7083L14.8333 18.3334ZM16.25 23.3334C16.5972 23.3334 16.8924 23.2119 17.1354 22.9688C17.3785 22.7258 17.5 22.4306 17.5 22.0834C17.5 21.7362 17.3785 21.4411 17.1354 21.198C16.8924 20.9549 16.5972 20.8334 16.25 20.8334C15.9028 20.8334 15.6076 20.9549 15.3646 21.198C15.1215 21.4411 15 21.7362 15 22.0834C15 22.4306 15.1215 22.7258 15.3646 22.9688C15.6076 23.2119 15.9028 23.3334 16.25 23.3334ZM23.75 23.3334C24.0972 23.3334 24.3924 23.2119 24.6354 22.9688C24.8785 22.7258 25 22.4306 25 22.0834C25 21.7362 24.8785 21.4411 24.6354 21.198C24.3924 20.9549 24.0972 20.8334 23.75 20.8334C23.4028 20.8334 23.1076 20.9549 22.8646 21.198C22.6215 21.4411 22.5 21.7362 22.5 22.0834C22.5 22.4306 22.6215 22.7258 22.8646 22.9688C23.1076 23.2119 23.4028 23.3334 23.75 23.3334Z" fill="#F4F4F5"/>
</g>
</svg>
