<svg width="40" height="40" viewBox="0 0 40 40" fill="none" xmlns="http://www.w3.org/2000/svg">
<rect width="40" height="40" rx="20" fill="#65A30D"/>
<path fill-rule="evenodd" clip-rule="evenodd" d="M20 19C20.7956 19 21.5587 18.6839 22.1213 18.1213C22.6839 17.5587 23 16.7956 23 16C23 15.2044 22.6839 14.4413 22.1213 13.8787C21.5587 13.3161 20.7956 13 20 13C19.2044 13 18.4413 13.3161 17.8787 13.8787C17.3161 14.4413 17 15.2044 17 16C17 16.7956 17.3161 17.5587 17.8787 18.1213C18.4413 18.6839 19.2044 19 20 19ZM13 28C13 27.0807 13.1811 26.1705 13.5328 25.3212C13.8846 24.4719 14.4002 23.7003 15.0503 23.0503C15.7003 22.4002 16.4719 21.8846 17.3212 21.5328C18.1705 21.1811 19.0807 21 20 21C20.9193 21 21.8295 21.1811 22.6788 21.5328C23.5281 21.8846 24.2997 22.4002 24.9497 23.0503C25.5998 23.7003 26.1154 24.4719 26.4672 25.3212C26.8189 26.1705 27 27.0807 27 28H13Z" fill="#F4F4F5"/>
</svg>
