<svg width="40" height="40" viewBox="0 0 40 40" fill="none" xmlns="http://www.w3.org/2000/svg">
<rect width="40" height="40" rx="20" fill="#65A30D"/>
<mask id="mask0_4473_452" style="mask-type:alpha" maskUnits="userSpaceOnUse" x="10" y="10" width="20" height="20">
<rect x="10" y="10" width="20" height="20" fill="#D9D9D9"/>
</mask>
<g mask="url(#mask0_4473_452)">
<path d="M27.5208 19.2083V25.8333C27.5208 26.2917 27.3576 26.684 27.0312 27.0104C26.7049 27.3368 26.3125 27.5 25.8542 27.5H14.1875C13.7292 27.5 13.3368 27.3368 13.0104 27.0104C12.684 26.684 12.5208 26.2917 12.5208 25.8333V19.2083C12.2014 18.9167 11.9549 18.5417 11.7812 18.0833C11.6076 17.625 11.6042 17.125 11.7708 16.5833L12.6458 13.75C12.7569 13.3889 12.9549 13.0903 13.2396 12.8542C13.5243 12.6181 13.8542 12.5 14.2292 12.5H25.8125C26.1875 12.5 26.5139 12.6146 26.7917 12.8438C27.0694 13.0729 27.2708 13.375 27.3958 13.75L28.2708 16.5833C28.4375 17.125 28.434 17.6181 28.2604 18.0625C28.0868 18.5069 27.8403 18.8889 27.5208 19.2083ZM21.8542 18.3333C22.2292 18.3333 22.5139 18.2049 22.7083 17.9479C22.9028 17.691 22.9792 17.4028 22.9375 17.0833L22.4792 14.1667H20.8542V17.25C20.8542 17.5417 20.9514 17.7951 21.1458 18.0104C21.3403 18.2257 21.5764 18.3333 21.8542 18.3333ZM18.1042 18.3333C18.4236 18.3333 18.684 18.2257 18.8854 18.0104C19.0868 17.7951 19.1875 17.5417 19.1875 17.25V14.1667H17.5625L17.1042 17.0833C17.0486 17.4167 17.1215 17.7083 17.3229 17.9583C17.5243 18.2083 17.7847 18.3333 18.1042 18.3333ZM14.3958 18.3333C14.6458 18.3333 14.8646 18.2431 15.0521 18.0625C15.2396 17.8819 15.3542 17.6528 15.3958 17.375L15.8542 14.1667H14.2292L13.3958 16.9583C13.3125 17.2361 13.3576 17.5347 13.5312 17.8542C13.7049 18.1736 13.993 18.3333 14.3958 18.3333ZM25.6458 18.3333C26.0486 18.3333 26.3403 18.1736 26.5208 17.8542C26.7014 17.5347 26.743 17.2361 26.6458 16.9583L25.7708 14.1667H24.1875L24.6458 17.375C24.6875 17.6528 24.8021 17.8819 24.9896 18.0625C25.1771 18.2431 25.3958 18.3333 25.6458 18.3333Z" fill="#F4F4F5"/>
</g>
</svg>
