<svg width="40" height="40" viewBox="0 0 40 40" fill="none" xmlns="http://www.w3.org/2000/svg">
<rect width="40" height="40" rx="20" fill="#65A30D"/>
<mask id="mask0_4473_2864" style="mask-type:alpha" maskUnits="userSpaceOnUse" x="10" y="10" width="20" height="20">
<rect x="10" y="10" width="20" height="20" fill="#D9D9D9"/>
</mask>
<g mask="url(#mask0_4473_2864)">
<path d="M23.3334 19.1666C23.5695 19.1666 23.7674 19.0868 23.9271 18.927C24.0868 18.7673 24.1667 18.5694 24.1667 18.3333C24.1667 18.0972 24.0868 17.8993 23.9271 17.7395C23.7674 17.5798 23.5695 17.5 23.3334 17.5C23.0972 17.5 22.8993 17.5798 22.7396 17.7395C22.5799 17.8993 22.5 18.0972 22.5 18.3333C22.5 18.5694 22.5799 18.7673 22.7396 18.927C22.8993 19.0868 23.0972 19.1666 23.3334 19.1666ZM16.6667 17.5H20.8334V15.8333H16.6667V17.5ZM13.75 27.5C13.2778 25.9166 12.8125 24.3368 12.3542 22.7604C11.8959 21.184 11.6667 19.5694 11.6667 17.9166C11.6667 16.6388 12.1111 15.5555 13 14.6666C13.8889 13.7777 14.9722 13.3333 16.25 13.3333H20.4167C20.8195 12.8055 21.309 12.3958 21.8854 12.1041C22.4618 11.8125 23.0834 11.6666 23.75 11.6666C24.0972 11.6666 24.3924 11.7882 24.6354 12.0312C24.8785 12.2743 25 12.5694 25 12.9166C25 12.9861 24.9653 13.1458 24.8959 13.3958C24.8403 13.5486 24.7882 13.7048 24.7396 13.8645C24.691 14.0243 24.6528 14.1875 24.625 14.3541L26.5209 16.25H28.3334V22.0625L25.9792 22.8333L24.5834 27.5H20V25.8333H18.3334V27.5H13.75Z" fill="#F4F4F5"/>
</g>
</svg>
