<svg width="40" height="40" viewBox="0 0 40 40" fill="none" xmlns="http://www.w3.org/2000/svg">
<rect width="40" height="40" rx="20" fill="#65A30D"/>
<mask id="mask0_4473_2964" style="mask-type:alpha" maskUnits="userSpaceOnUse" x="10" y="10" width="20" height="20">
<rect x="10" y="10" width="20" height="20" fill="#D9D9D9"/>
</mask>
<g mask="url(#mask0_4473_2964)">
<path d="M18.3334 27.5V25.9167C18.3334 25.625 18.4063 25.3507 18.5521 25.0938C18.6979 24.8368 18.8959 24.6319 19.1459 24.4792C19.7847 24.1042 20.4549 23.8194 21.1563 23.625C21.8577 23.4306 22.5834 23.3333 23.3334 23.3333C24.0834 23.3333 24.809 23.4306 25.5104 23.625C26.2118 23.8194 26.882 24.1042 27.5209 24.4792C27.7709 24.6319 27.9688 24.8368 28.1146 25.0938C28.2604 25.3507 28.3334 25.625 28.3334 25.9167V27.5H18.3334ZM11.6667 27.5V17.5L18.3334 12.5L22.8125 15.875C21.7709 16 20.9028 16.4549 20.2084 17.2396C19.5139 18.0243 19.1667 18.9444 19.1667 20C19.1667 20.4306 19.2257 20.8368 19.3438 21.2188C19.4618 21.6007 19.632 21.9583 19.8542 22.2917C19.5764 22.4028 19.309 22.5174 19.0521 22.6354C18.7952 22.7535 18.5417 22.8889 18.2917 23.0417C17.7917 23.3333 17.3959 23.7396 17.1042 24.2604C16.8125 24.7812 16.6667 25.3333 16.6667 25.9167V27.5H11.6667ZM23.3334 22.5C22.6389 22.5 22.0486 22.2569 21.5625 21.7708C21.0764 21.2847 20.8334 20.6944 20.8334 20C20.8334 19.3056 21.0764 18.7153 21.5625 18.2292C22.0486 17.7431 22.6389 17.5 23.3334 17.5C24.0278 17.5 24.6181 17.7431 25.1042 18.2292C25.5903 18.7153 25.8334 19.3056 25.8334 20C25.8334 20.6944 25.5903 21.2847 25.1042 21.7708C24.6181 22.2569 24.0278 22.5 23.3334 22.5Z" fill="#F4F4F5"/>
</g>
</svg>
