<svg width="40" height="40" viewBox="0 0 40 40" fill="none" xmlns="http://www.w3.org/2000/svg">
<rect width="40" height="40" rx="20" fill="#65A30D"/>
<mask id="mask0_4473_3717" style="mask-type:alpha" maskUnits="userSpaceOnUse" x="10" y="10" width="20" height="20">
<rect x="10" y="10" width="20" height="20" fill="#D9D9D9"/>
</mask>
<g mask="url(#mask0_4473_3717)">
<path d="M15 25.8333V26.6666C15 26.9027 14.9201 27.1007 14.7604 27.2604C14.6007 27.4201 14.4028 27.5 14.1667 27.5H13.3333C13.0972 27.5 12.8993 27.4201 12.7396 27.2604C12.5799 27.1007 12.5 26.9027 12.5 26.6666V20L14.25 15C14.3333 14.75 14.4826 14.5486 14.6979 14.3958C14.9132 14.243 15.1528 14.1666 15.4167 14.1666H24.5833C24.8472 14.1666 25.0868 14.243 25.3021 14.3958C25.5174 14.5486 25.6667 14.75 25.75 15L27.5 20V26.6666C27.5 26.9027 27.4201 27.1007 27.2604 27.2604C27.1007 27.4201 26.9028 27.5 26.6667 27.5H25.8333C25.5972 27.5 25.3993 27.4201 25.2396 27.2604C25.0799 27.1007 25 26.9027 25 26.6666V25.8333H15ZM14.8333 18.3333H25.1667L24.2917 15.8333H15.7083L14.8333 18.3333ZM16.25 23.3333C16.5972 23.3333 16.8924 23.2118 17.1354 22.9687C17.3785 22.7257 17.5 22.4305 17.5 22.0833C17.5 21.7361 17.3785 21.4409 17.1354 21.1979C16.8924 20.9548 16.5972 20.8333 16.25 20.8333C15.9028 20.8333 15.6076 20.9548 15.3646 21.1979C15.1215 21.4409 15 21.7361 15 22.0833C15 22.4305 15.1215 22.7257 15.3646 22.9687C15.6076 23.2118 15.9028 23.3333 16.25 23.3333ZM23.75 23.3333C24.0972 23.3333 24.3924 23.2118 24.6354 22.9687C24.8785 22.7257 25 22.4305 25 22.0833C25 21.7361 24.8785 21.4409 24.6354 21.1979C24.3924 20.9548 24.0972 20.8333 23.75 20.8333C23.4028 20.8333 23.1076 20.9548 22.8646 21.1979C22.6215 21.4409 22.5 21.7361 22.5 22.0833C22.5 22.4305 22.6215 22.7257 22.8646 22.9687C23.1076 23.2118 23.4028 23.3333 23.75 23.3333Z" fill="#F4F4F5"/>
</g>
</svg>
