<svg width="18" height="18" viewBox="0 0 18 18" fill="none" xmlns="http://www.w3.org/2000/svg">
<path fill-rule="evenodd" clip-rule="evenodd" d="M12.1291 13.401C11.089 14.1403 9.82073 14.4874 8.54913 14.3807C7.27753 14.2741 6.0848 13.7205 5.18243 12.8183C4.28006 11.916 3.72637 10.7233 3.61954 9.45174C3.5127 8.18016 3.85963 6.91182 4.5988 5.87165L12.1291 13.4028V13.401ZM13.4017 12.1284L5.87141 4.59905C6.91154 3.85926 8.18011 3.51182 9.45204 3.61838C10.724 3.72494 11.9171 4.27861 12.8196 5.18115C13.7221 6.0837 14.2758 7.27677 14.3824 8.54871C14.4889 9.82065 14.1415 11.0892 13.4017 12.1293V12.1284ZM16.1998 9.00005C16.1998 10.9096 15.4412 12.741 14.091 14.0912C12.7407 15.4415 10.9094 16.2 8.9998 16.2C7.09025 16.2 5.2589 15.4415 3.90864 14.0912C2.55837 12.741 1.7998 10.9096 1.7998 9.00005C1.7998 7.09049 2.55837 5.25914 3.90864 3.90888C5.2589 2.55862 7.09025 1.80005 8.9998 1.80005C10.9094 1.80005 12.7407 2.55862 14.091 3.90888C15.4412 5.25914 16.1998 7.09049 16.1998 9.00005Z" fill="#C81E1E"/>
</svg>
