<svg width="24" height="24" viewBox="0 0 24 24" fill="none" xmlns="http://www.w3.org/2000/svg">
<g id="shape">
<path id="Vector" d="M12.0003 2.3999C10.0908 2.3999 8.25942 3.15847 6.90916 4.50873C5.5589 5.859 4.80033 7.69034 4.80033 9.5999V13.9031L3.95193 14.7515C3.78416 14.9193 3.66991 15.1331 3.62363 15.3659C3.57735 15.5986 3.60111 15.8398 3.69192 16.0591C3.78272 16.2783 3.93649 16.4657 4.13378 16.5976C4.33107 16.7294 4.56303 16.7999 4.80033 16.7999H19.2003C19.4376 16.7999 19.6696 16.7294 19.8669 16.5976C20.0642 16.4657 20.2179 16.2783 20.3087 16.0591C20.3995 15.8398 20.4233 15.5986 20.377 15.3659C20.3307 15.1331 20.2165 14.9193 20.0487 14.7515L19.2003 13.9031V9.5999C19.2003 7.69034 18.4418 5.859 17.0915 4.50873C15.7412 3.15847 13.9099 2.3999 12.0003 2.3999ZM12.0003 21.5999C11.0456 21.5999 10.1299 21.2206 9.45475 20.5455C8.77961 19.8704 8.40033 18.9547 8.40033 17.9999H15.6003C15.6003 18.9547 15.221 19.8704 14.5459 20.5455C13.8708 21.2206 12.9551 21.5999 12.0003 21.5999Z" fill="#71717A"/>
</g>
</svg>
