<svg width="48" height="48" viewBox="0 0 48 48" fill="none" xmlns="http://www.w3.org/2000/svg">
<g id="cash">
<path id="Vector" fill-rule="evenodd" clip-rule="evenodd" d="M9.60078 9.59961C8.32774 9.59961 7.10684 10.1053 6.20667 11.0055C5.30649 11.9057 4.80078 13.1266 4.80078 14.3996V23.9996C4.80078 25.2726 5.30649 26.4935 6.20667 27.3937C7.10684 28.2939 8.32774 28.7996 9.60078 28.7996V14.3996H33.6008C33.6008 13.1266 33.0951 11.9057 32.1949 11.0055C31.2947 10.1053 30.0738 9.59961 28.8008 9.59961H9.60078ZM14.4008 23.9996C14.4008 22.7266 14.9065 21.5057 15.8067 20.6055C16.7068 19.7053 17.9277 19.1996 19.2008 19.1996H38.4008C39.6738 19.1996 40.8947 19.7053 41.7949 20.6055C42.6951 21.5057 43.2008 22.7266 43.2008 23.9996V33.5996C43.2008 34.8727 42.6951 36.0935 41.7949 36.9937C40.8947 37.8939 39.6738 38.3996 38.4008 38.3996H19.2008C17.9277 38.3996 16.7068 37.8939 15.8067 36.9937C14.9065 36.0935 14.4008 34.8727 14.4008 33.5996V23.9996ZM28.8008 33.5996C30.0738 33.5996 31.2947 33.0939 32.1949 32.1937C33.0951 31.2935 33.6008 30.0726 33.6008 28.7996C33.6008 27.5266 33.0951 26.3057 32.1949 25.4055C31.2947 24.5053 30.0738 23.9996 28.8008 23.9996C27.5277 23.9996 26.3068 24.5053 25.4067 25.4055C24.5065 26.3057 24.0008 27.5266 24.0008 28.7996C24.0008 30.0726 24.5065 31.2935 25.4067 32.1937C26.3068 33.0939 27.5277 33.5996 28.8008 33.5996Z" fill="#60A5FA"/>
</g>
</svg>
