<svg width="64" height="64" viewBox="0 0 64 64" fill="none" xmlns="http://www.w3.org/2000/svg">
<g id="check">
<path id="Vector" fill-rule="evenodd" clip-rule="evenodd" d="M53.4618 16.9369C54.0617 17.537 54.3987 18.3508 54.3987 19.1993C54.3987 20.0478 54.0617 20.8616 53.4618 21.4617L27.8617 47.0617C27.2617 47.6616 26.4479 47.9986 25.5993 47.9986C24.7508 47.9986 23.937 47.6616 23.337 47.0617L10.5369 34.2617C9.95404 33.6582 9.6315 32.8499 9.63879 32.0108C9.64608 31.1718 9.98262 30.3692 10.5759 29.7759C11.1692 29.1826 11.9718 28.8461 12.8109 28.8388C13.6499 28.8315 14.4582 29.154 15.0617 29.7369L25.5993 40.2745L48.937 16.9369C49.537 16.337 50.3508 16 51.1994 16C52.0479 16 52.8617 16.337 53.4618 16.9369Z" fill="#22C55E"/>
</g>
</svg>
