<svg width="40" height="40" viewBox="0 0 40 40" fill="none" xmlns="http://www.w3.org/2000/svg">
<rect width="40" height="40" rx="20" fill="#3F3F46"/>
<path fill-rule="evenodd" clip-rule="evenodd" d="M14.0001 18.8004V16.4004C14.0001 14.8091 14.6322 13.283 15.7575 12.1578C16.8827 11.0325 18.4088 10.4004 20.0001 10.4004C21.5914 10.4004 23.1175 11.0325 24.2427 12.1578C25.368 13.283 26.0001 14.8091 26.0001 16.4004V18.8004C26.6366 18.8004 27.2471 19.0532 27.6972 19.5033C28.1472 19.9534 28.4001 20.5639 28.4001 21.2004V27.2004C28.4001 27.8369 28.1472 28.4474 27.6972 28.8974C27.2471 29.3475 26.6366 29.6004 26.0001 29.6004H14.0001C13.3636 29.6004 12.7531 29.3475 12.303 28.8974C11.853 28.4474 11.6001 27.8369 11.6001 27.2004V21.2004C11.6001 20.5639 11.853 19.9534 12.303 19.5033C12.7531 19.0532 13.3636 18.8004 14.0001 18.8004ZM23.6001 16.4004V18.8004H16.4001V16.4004C16.4001 15.4456 16.7794 14.5299 17.4545 13.8548C18.1296 13.1797 19.0453 12.8004 20.0001 12.8004C20.9549 12.8004 21.8706 13.1797 22.5457 13.8548C23.2208 14.5299 23.6001 15.4456 23.6001 16.4004Z" fill="white"/>
</svg>

