<svg width="20" height="20" viewBox="0 0 20 20" fill="none" xmlns="http://www.w3.org/2000/svg">
<path d="M14.3474 6.64036L14.3473 6.64041L14.3534 6.64655L17.3534 9.6465C17.3534 9.64652 17.3534 9.64654 17.3534 9.64655C17.4471 9.74031 17.4998 9.86744 17.4998 10C17.4998 10.1326 17.4471 10.2597 17.3534 10.3534C17.3534 10.3535 17.3534 10.3535 17.3534 10.3535L14.357 13.3499C14.263 13.4394 14.1378 13.4888 14.0079 13.4877C13.8768 13.4866 13.7514 13.434 13.6587 13.3413C13.566 13.2486 13.5134 13.1232 13.5123 12.9921C13.5112 12.8622 13.5606 12.737 13.6501 12.643L14.9396 11.3536L15.7931 10.5H14.586H7C6.86739 10.5 6.74022 10.4473 6.64645 10.3536C6.55268 10.2598 6.5 10.1326 6.5 10C6.5 9.86739 6.55268 9.74022 6.64645 9.64645C6.74022 9.55268 6.86739 9.5 7 9.5H14.586H15.7931L14.9396 8.64645L13.6466 7.35345L13.6466 7.35339L13.6404 7.34736C13.5926 7.30123 13.5545 7.24606 13.5283 7.18506C13.5021 7.12406 13.4883 7.05845 13.4877 6.99206C13.4872 6.92567 13.4998 6.85983 13.5249 6.79838C13.5501 6.73693 13.5872 6.6811 13.6342 6.63416C13.6811 6.58721 13.7369 6.55008 13.7984 6.52494C13.8598 6.4998 13.9257 6.48715 13.9921 6.48773C14.0584 6.48831 14.1241 6.5021 14.1851 6.52831C14.2461 6.55451 14.3012 6.5926 14.3474 6.64036ZM2.64645 3.64645C2.74021 3.55268 2.86739 3.5 3 3.5C3.13261 3.5 3.25979 3.55268 3.35355 3.64645C3.44732 3.74021 3.5 3.86739 3.5 4V16C3.5 16.1326 3.44732 16.2598 3.35355 16.3536C3.25979 16.4473 3.13261 16.5 3 16.5C2.86739 16.5 2.74021 16.4473 2.64645 16.3536C2.55268 16.2598 2.5 16.1326 2.5 16V4C2.5 3.86739 2.55268 3.74021 2.64645 3.64645Z" fill="#EF4444" stroke="#EF4444"/>
</svg>
