<svg width="20" height="20" viewBox="0 0 20 20" fill="none" xmlns="http://www.w3.org/2000/svg">
<g id="shape">
<path id="Vector" d="M2.00391 5.884L10.0009 9.882L17.9979 5.884C17.9683 5.37444 17.745 4.89549 17.3737 4.54523C17.0025 4.19497 16.5113 3.99991 16.0009 4H4.00091C3.49049 3.99991 2.99935 4.19497 2.62808 4.54523C2.25681 4.89549 2.03351 5.37444 2.00391 5.884Z" fill="white"/>
<path id="Vector_2" d="M18 8.11816L10 12.1182L2 8.11816V14.0002C2 14.5306 2.21071 15.0393 2.58579 15.4144C2.96086 15.7895 3.46957 16.0002 4 16.0002H16C16.5304 16.0002 17.0391 15.7895 17.4142 15.4144C17.7893 15.0393 18 14.5306 18 14.0002V8.11816Z" fill="white"/>
</g>
</svg>
