<svg width="48" height="48" viewBox="0 0 48 48" fill="none" xmlns="http://www.w3.org/2000/svg">
<g id="pencil">
<path id="Vector" d="M32.6056 8.60601C33.0484 8.14756 33.5781 7.78188 34.1637 7.53032C34.7493 7.27876 35.3792 7.14634 36.0165 7.14081C36.6538 7.13527 37.2859 7.25672 37.8758 7.49806C38.4657 7.73941 39.0016 8.09583 39.4523 8.54651C39.903 8.9972 40.2594 9.53313 40.5008 10.123C40.7421 10.7129 40.8636 11.345 40.858 11.9823C40.8525 12.6197 40.7201 13.2495 40.4685 13.8351C40.2169 14.4208 39.8513 14.9504 39.3928 15.3932L37.4896 17.2964L30.7024 10.5092L32.6056 8.60601ZM27.3088 13.9028L7.19922 34.0124V40.7996H13.9864L34.0984 20.69L27.3064 13.9028H27.3088Z" fill="#60A5FA"/>
</g>
</svg>
