<svg width="48" height="48" viewBox="0 0 48 48" fill="none" xmlns="http://www.w3.org/2000/svg">
<g id="search">
<path id="Vector" fill-rule="evenodd" clip-rule="evenodd" d="M19.1998 9.59871C16.6537 9.59871 14.2119 10.6101 12.4116 12.4105C10.6112 14.2108 9.5998 16.6526 9.5998 19.1987C9.5998 21.7448 10.6112 24.1866 12.4116 25.9869C14.2119 27.7873 16.6537 28.7987 19.1998 28.7987C21.7459 28.7987 24.1877 27.7873 25.988 25.9869C27.7884 24.1866 28.7998 21.7448 28.7998 19.1987C28.7998 16.6526 27.7884 14.2108 25.988 12.4105C24.1877 10.6101 21.7459 9.59871 19.1998 9.59871ZM4.7998 19.1987C4.79952 16.9324 5.33415 14.698 6.36022 12.6773C7.38629 10.6566 8.87482 8.90655 10.7048 7.56958C12.5347 6.2326 14.6544 5.34642 16.8914 4.98311C19.1284 4.6198 21.4195 4.78962 23.5785 5.47875C25.7375 6.16789 27.7034 7.35688 29.3162 8.94902C30.929 10.5412 32.1433 12.4915 32.8603 14.6414C33.5772 16.7914 33.7766 19.0801 33.4422 21.3216C33.1078 23.5631 32.249 25.6941 30.9358 27.5411L42.4966 39.1019C42.9338 39.5546 43.1757 40.1608 43.1702 40.7901C43.1648 41.4193 42.9123 42.0213 42.4674 42.4663C42.0224 42.9113 41.4204 43.1637 40.7912 43.1691C40.1619 43.1746 39.5556 42.9327 39.103 42.4955L27.5446 30.9371C25.3903 32.469 22.8558 33.3783 20.219 33.5654C17.5822 33.7525 14.9448 33.2102 12.5957 31.9978C10.2467 30.7855 8.27665 28.95 6.90154 26.6924C5.52643 24.4347 4.79929 21.8422 4.7998 19.1987Z" fill="#60A5FA"/>
</g>
</svg>
