<svg width="49" height="48" viewBox="0 0 49 48" fill="none" xmlns="http://www.w3.org/2000/svg">
<g id="search">
<path id="Vector" fill-rule="evenodd" clip-rule="evenodd" d="M19.7008 9.59871C17.1547 9.59871 14.7129 10.6101 12.9126 12.4105C11.1122 14.2108 10.1008 16.6526 10.1008 19.1987C10.1008 21.7448 11.1122 24.1866 12.9126 25.9869C14.7129 27.7873 17.1547 28.7987 19.7008 28.7987C22.2469 28.7987 24.6887 27.7873 26.489 25.9869C28.2894 24.1866 29.3008 21.7448 29.3008 19.1987C29.3008 16.6526 28.2894 14.2108 26.489 12.4105C24.6887 10.6101 22.2469 9.59871 19.7008 9.59871ZM5.30078 19.1987C5.30049 16.9324 5.83512 14.698 6.86119 12.6773C7.88726 10.6566 9.3758 8.90655 11.2057 7.56958C13.0357 6.2326 15.1553 5.34642 17.3923 4.98311C19.6293 4.6198 21.9205 4.78962 24.0795 5.47875C26.2385 6.16789 28.2043 7.35688 29.8172 8.94902C31.43 10.5412 32.6443 12.4915 33.3612 14.6414C34.0782 16.7914 34.2776 19.0801 33.9432 21.3216C33.6088 23.5631 32.75 25.6941 31.4368 27.5411L42.9976 39.1019C43.4348 39.5546 43.6767 40.1608 43.6712 40.7901C43.6657 41.4193 43.4133 42.0213 42.9683 42.4663C42.5234 42.9113 41.9214 43.1637 41.2921 43.1691C40.6629 43.1746 40.0566 42.9327 39.604 42.4955L28.0456 30.9371C25.8913 32.469 23.3568 33.3783 20.72 33.5654C18.0832 33.7525 15.4458 33.2102 13.0967 31.9978C10.7476 30.7855 8.77763 28.95 7.40252 26.6924C6.02741 24.4347 5.30027 21.8422 5.30078 19.1987Z" fill="#FB7185"/>
</g>
</svg>
