<svg width="21" height="20" viewBox="0 0 21 20" fill="none" xmlns="http://www.w3.org/2000/svg">
<g id="right icon">
<path id="Vector" fill-rule="evenodd" clip-rule="evenodd" d="M8.5 4.00077C7.43913 4.00077 6.42172 4.42219 5.67157 5.17234C4.92143 5.92248 4.5 6.9399 4.5 8.00077C4.5 9.06163 4.92143 10.079 5.67157 10.8292C6.42172 11.5793 7.43913 12.0008 8.5 12.0008C9.56087 12.0008 10.5783 11.5793 11.3284 10.8292C12.0786 10.079 12.5 9.06163 12.5 8.00077C12.5 6.9399 12.0786 5.92248 11.3284 5.17234C10.5783 4.42219 9.56087 4.00077 8.5 4.00077ZM2.5 8.00077C2.49988 7.05647 2.72264 6.12548 3.15017 5.28351C3.5777 4.44154 4.19792 3.71236 4.9604 3.15529C5.72287 2.59822 6.60606 2.22898 7.53815 2.0776C8.47023 1.92622 9.42488 1.99698 10.3245 2.28412C11.224 2.57126 12.0432 3.06667 12.7152 3.73006C13.3872 4.39346 13.8931 5.2061 14.1919 6.1019C14.4906 6.9977 14.5737 7.95136 14.4343 8.88532C14.295 9.81928 13.9372 10.7072 13.39 11.4768L18.207 16.2938C18.3892 16.4824 18.49 16.735 18.4877 16.9972C18.4854 17.2594 18.3802 17.5102 18.1948 17.6956C18.0094 17.881 17.7586 17.9862 17.4964 17.9884C17.2342 17.9907 16.9816 17.8899 16.793 17.7078L11.977 12.8918C11.0794 13.53 10.0233 13.9089 8.92468 13.9869C7.826 14.0648 6.72707 13.8389 5.7483 13.3337C4.76953 12.8286 3.94869 12.0638 3.37572 11.1231C2.80276 10.1824 2.49979 9.1022 2.5 8.00077Z" fill="#71717A"/>
</g>
</svg>
