<svg width="87" height="20" viewBox="0 0 87 20" fill="none" xmlns="http://www.w3.org/2000/svg">
<g id="levitas">
<path id="shape7" d="M15.5122 13.5148V19.3588H0.215496V18.9011C1.37334 18.9011 2.12697 17.7164 2.12697 15.8853V3.25494C2.12697 1.61254 1.15784 0.857684 0 0.857684V0.399902H8.5359V0.857684C7.37806 0.857684 6.0315 1.31547 6.0315 3.25494V18.9011H7.00063C7.00063 18.9011 14.1364 18.9011 15.052 13.5148H15.5122Z" fill="white"/>
<path id="shape6" d="M30.1869 12.8953H21.6229C21.8384 15.5348 23.185 16.9082 24.9893 17.3124C26.443 17.635 28.598 17.0969 29.2713 15.8307L29.7291 16.0729C29.2981 17.4731 27.7092 19.6 24.1006 19.6C20.5722 19.6 18.1494 16.342 18.1494 13.1911C18.1494 9.39373 20.7342 6.67383 24.4512 6.67383C28.3557 6.67505 30.1869 8.69489 30.1869 12.8953ZM26.9008 12.4375C26.9008 9.04431 25.7965 7.13283 24.3161 7.13283C22.7272 7.13283 21.6229 9.85273 21.6229 12.4375H26.9008Z" fill="white"/>
<path id="shape5" d="M44.5392 6.91724V7.37502C43.9195 7.37502 42.7616 7.4018 41.0389 11.5486L37.8344 19.5999H37.4034C32.6369 9.25849 32.3946 8.80071 32.3946 8.80071C31.7481 7.3738 31.048 7.3738 30.5635 7.3738V6.91602H36.9188V7.3738C35.4104 7.3738 36.4075 9.39363 36.4075 9.39363L39.0738 15.1025L40.5555 11.4403C40.5555 11.4403 42.2247 7.3738 39.2893 7.3738V6.91602H44.5392V6.91724Z" fill="white"/>
<path id="shape4" d="M51.108 18.9013V19.3591H45.5878V18.9013C46.6105 18.5786 46.6653 17.4476 46.6653 16.0742V10.0963C46.6653 9.18076 46.3963 8.80333 45.292 8.21162V7.75384L50.0049 6.67635V16.0742C50.0037 17.5815 50.1389 18.631 51.108 18.9013ZM48.0642 4.52016C47.0415 4.52016 46.2331 3.71295 46.2331 2.68903C46.2331 1.66511 47.0415 0.85791 48.0642 0.85791C49.0882 0.85791 49.9222 1.66511 49.9222 2.68903C49.9234 3.71295 49.0882 4.52016 48.0642 4.52016Z" fill="white"/>
<path id="shape3" d="M60.9908 16.7464L61.3951 16.9887C60.8569 18.2549 59.2133 19.6002 57.409 19.6002C55.282 19.6002 54.0158 18.7382 54.0158 15.4802V7.37406H52.6692L52.5889 6.91627H54.0158V3.3076L57.3822 2.74268V6.91627H60.5866L60.4795 7.37405H57.3822V15.3986C57.3822 16.9071 58.0287 17.6875 59.3752 17.6875C60.1556 17.6887 60.7486 17.1506 60.9908 16.7464Z" fill="white"/>
<path id="shape2" d="M85.9517 18.1463C85.9517 18.1463 84.9278 19.6 82.1811 19.6C78.923 19.6 77.3074 18.3618 77.3074 18.3618V14.9687H77.7652C78.1694 16.0194 79.0314 19.1423 82.1823 19.1423C84.0938 19.1423 84.4176 16.7182 82.371 15.3717L79.6511 13.7292C77.0396 12.1404 76.3383 9.95865 77.82 8.02038C77.82 8.02038 78.8427 6.67383 81.5358 6.67383C84.6331 6.67383 85.9797 7.48225 85.9797 7.48225V10.498H85.5219C85.1713 9.55566 84.3105 7.13161 81.537 7.13161C79.7863 7.13161 79.0326 9.20501 81.3751 10.6867L84.095 12.3827C86.4898 13.8644 87.2982 16.2081 85.9517 18.1463Z" fill="white"/>
<path id="shape1" d="M75.1546 19.276H62.0957V9.66262L69.4165 3.3584L76.1871 9.18901L74.121 11.5899L69.4165 7.5393L65.2636 11.1151V16.1081H75.1546V19.276Z" fill="#4682B4"/>
</g>
</svg>
