<svg width="133" height="40" viewBox="0 0 133 40" fill="none" xmlns="http://www.w3.org/2000/svg">
<path d="M31.3902 24.3937V31.6987H12.2694V31.1264C13.7167 31.1264 14.6587 29.6457 14.6587 27.3567V11.5688C14.6587 9.51579 13.4473 8.57223 12 8.57223V8H22.6699V8.57223C21.2226 8.57223 19.5394 9.14445 19.5394 11.5688V31.1264H20.7508C20.7508 31.1264 29.6705 31.1264 30.815 24.3937H31.3902Z" fill="#27272A"/>
<path d="M49.7333 23.6186H39.0284C39.2978 26.918 40.981 28.6347 43.2364 29.14C45.0536 29.5433 47.7473 28.8706 48.5889 27.2878L49.1611 27.5907C48.6223 29.3408 46.6363 31.9996 42.1255 31.9996C37.7151 31.9996 34.6865 27.927 34.6865 23.9884C34.6865 19.2417 37.9175 15.8418 42.5638 15.8418C47.4444 15.8433 49.7333 18.3681 49.7333 23.6186ZM45.6258 23.0464C45.6258 18.8049 44.2454 16.4155 42.3948 16.4155C40.4088 16.4155 39.0284 19.8154 39.0284 23.0464H45.6258Z" fill="#27272A"/>
<path d="M67.6732 16.147V16.7193C66.8986 16.7193 65.4513 16.7527 63.2978 21.9363L59.2923 32.0004H58.7535C52.7954 19.0736 52.4925 18.5014 52.4925 18.5014C51.6844 16.7177 50.8093 16.7177 50.2036 16.7177V16.1455H58.1478V16.7177C56.2622 16.7177 57.5086 19.2425 57.5086 19.2425L60.8415 26.3786L62.6937 21.8008C62.6937 21.8008 64.7802 16.7177 61.1109 16.7177V16.1455H67.6732V16.147Z" fill="#27272A"/>
<path d="M75.8852 31.1265V31.6987H68.985V31.1265C70.2634 30.7232 70.3319 29.3094 70.3319 27.5927V20.1203C70.3319 18.9758 69.9956 18.504 68.6152 17.7644V17.1922L74.5064 15.8453V27.5927C74.5049 29.4768 74.6738 30.7886 75.8852 31.1265ZM72.0805 13.1501C70.8022 13.1501 69.7916 12.1411 69.7916 10.8612C69.7916 9.58127 70.8022 8.57227 72.0805 8.57227C73.3604 8.57227 74.4029 9.58127 74.4029 10.8612C74.4045 12.1411 73.3604 13.1501 72.0805 13.1501Z" fill="#27272A"/>
<path d="M88.2383 28.4324L88.7436 28.7352C88.0709 30.318 86.0164 31.9997 83.7609 31.9997C81.1022 31.9997 79.5195 30.9222 79.5195 26.8496V16.717H77.8363L77.7358 16.1447H79.5195V11.6339L83.7275 10.9277V16.1447H87.733L87.5991 16.717H83.7275V26.7476C83.7275 28.6333 84.5356 29.6088 86.2188 29.6088C87.1943 29.6103 87.9355 28.9376 88.2383 28.4324Z" fill="#27272A"/>
<path d="M119.44 30.1824C119.44 30.1824 118.16 31.9995 114.727 31.9995C110.654 31.9995 108.635 30.4518 108.635 30.4518V26.2103H109.207C109.712 27.5237 110.789 31.4273 114.728 31.4273C117.117 31.4273 117.522 28.3973 114.964 26.7141L111.564 24.6611C108.3 22.675 107.423 19.9478 109.275 17.525C109.275 17.525 110.554 15.8418 113.92 15.8418C117.792 15.8418 119.475 16.8523 119.475 16.8523V20.622H118.903C118.464 19.4441 117.388 16.414 113.922 16.414C111.733 16.414 110.791 19.0058 113.719 20.8579L117.119 22.9779C120.112 24.83 121.123 27.7596 119.44 30.1824Z" fill="#27272A"/>
<path d="M105.942 31.5953H89.6187V19.5785L98.7697 11.6982L107.233 18.9865L104.65 21.9877L98.7697 16.9244L93.5786 21.3941V27.6353H105.942V31.5953Z" fill="#4682B4"/>
</svg>
